<svg xmlns="http://www.w3.org/2000/svg"><defs id="defs3"><marker style="overflow:visible;fill:inherit;stroke:inherit" id="Arrow1Lstart" orient="auto" refX="0" refY="0"><path style="fill-rule:evenodd;stroke-width:1pt;marker-start:none" d="M 0.0,0.0 L 5.0,-5.0 L -12.5,0.0 L 5.0,5.0 L 0.0,0.0 z" transform="scale(0.8) translate(12.5,0)"/></marker><marker style="overflow:visible;fill:inherit;stroke:inherit" id="Arrow1Lend" orient="auto" refX="0" refY="0"><path style="fill-rule:evenodd;stroke-width:1pt;marker-start:none" d="M 0.0,0.0 L 5.0,-5.0 L -12.5,0.0 L 5.0,5.0 L 0.0,0.0 z" transform="scale(0.8) rotate(180) translate(12.5,0)"/></marker><marker style="overflow:visible;fill:inherit;stroke:inherit" id="Arrow1Mstart" orient="auto" refX="0" refY="0"><path style="fill-rule:evenodd;stroke-width:1pt;marker-start:none" d="M 0.0,0.0 L 5.0,-5.0 L -12.5,0.0 L 5.0,5.0 L 0.0,0.0 z" transform="scale(0.4) translate(10,0)"/></marker><marker style="overflow:visible;fill:inherit;stroke:inherit" id="Arrow1Mend" orient="auto" refX="0" refY="0"><path style="fill-rule:evenodd;stroke-width:1pt;marker-start:none" d="M 0.0,0.0 L 5.0,-5.0 L -12.5,0.0 L 5.0,5.0 L 0.0,0.0 z" transform="scale(0.4) rotate(180) translate(10,0)"/></marker><marker style="overflow:visible;fill:inherit;stroke:inherit" id="Arrow1Sstart" orient="auto" refX="0" refY="0"><path style="fill-rule:evenodd;stroke-width:1pt;marker-start:none" d="M 0.0,0.0 L 5.0,-5.0 L -12.5,0.0 L 5.0,5.0 L 0.0,0.0 z" transform="scale(0.2) translate(6,0)"/></marker><marker style="overflow:visible;fill:inherit;stroke:inherit" id="Arrow1Send" orient="auto" refX="0" refY="0"><path style="fill-rule:evenodd;stroke-width:1pt;marker-start:none" d="M 0.0,0.0 L 5.0,-5.0 L -12.5,0.0 L 5.0,5.0 L 0.0,0.0 z" transform="scale(0.2) rotate(180) translate(6,0)"/></marker><marker style="overflow:visible;fill:inherit;stroke:inherit" id="Arrow2Lstart" orient="auto" refX="0" refY="0"><path d="M 8.7185878,4.0337352 L -2.2072895,0.016013256 L 8.7185884,-4.0017078 C 6.9730900,-1.6296469 6.9831476,1.6157441 8.7185878,4.0337352 z" transform="scale(1.1) translate(1,0)" style="font-size:12;fill-rule:evenodd;stroke-width:.625;stroke-linejoin:round"/></marker><marker style="overflow:visible;fill:inherit;stroke:inherit" id="Arrow2Lend" orient="auto" refX="0" refY="0"><path d="M 8.7185878,4.0337352 L -2.2072895,0.016013256 L 8.7185884,-4.0017078 C 6.9730900,-1.6296469 6.9831476,1.6157441 8.7185878,4.0337352 z" transform="scale(1.1) rotate(180) translate(1,0)" style="font-size:12;fill-rule:evenodd;stroke-width:.625;stroke-linejoin:round"/></marker><marker style="overflow:visible;fill:inherit;stroke:inherit" id="Arrow2Mstart" orient="auto" refX="0" refY="0"><path d="M 8.7185878,4.0337352 L -2.2072895,0.016013256 L 8.7185884,-4.0017078 C 6.9730900,-1.6296469 6.9831476,1.6157441 8.7185878,4.0337352 z" transform="scale(0.6) translate(0,0)" style="font-size:12;fill-rule:evenodd;stroke-width:.625;stroke-linejoin:round"/></marker><marker style="overflow:visible;fill:inherit;stroke:inherit" id="Arrow2Mend" orient="auto" refX="0" refY="0"><path d="M 8.7185878,4.0337352 L -2.2072895,0.016013256 L 8.7185884,-4.0017078 C 6.9730900,-1.6296469 6.9831476,1.6157441 8.7185878,4.0337352 z" transform="scale(0.6) rotate(180) translate(0,0)" style="font-size:12;fill-rule:evenodd;stroke-width:.625;stroke-linejoin:round"/></marker><marker style="overflow:visible;fill:inherit;stroke:inherit" id="Arrow2Sstart" orient="auto" refX="0" refY="0"><path d="M 8.7185878,4.0337352 L -2.2072895,0.016013256 L 8.7185884,-4.0017078 C 6.9730900,-1.6296469 6.9831476,1.6157441 8.7185878,4.0337352 z" transform="scale(0.3) translate(-2.3,0)" style="font-size:12;fill-rule:evenodd;stroke-width:.625;stroke-linejoin:round"/></marker><marker style="overflow:visible;fill:inherit;stroke:inherit" id="Arrow2Send" orient="auto" refX="0" refY="0"><path d="M 8.7185878,4.0337352 L -2.2072895,0.016013256 L 8.7185884,-4.0017078 C 6.9730900,-1.6296469 6.9831476,1.6157441 8.7185878,4.0337352 z" transform="scale(0.3) rotate(180) translate(-2.3,0)" style="font-size:12;fill-rule:evenodd;stroke-width:.625;stroke-linejoin:round"/></marker></defs></svg>