<svg xmlns="http://www.w3.org/2000/svg" width="204" height="206" style="stroke:#000;fill:none"><title>sun</title><circle cx="100" cy="100" r="50"/><polygon points="10 0 0 40 20 40" transform="translate(110) scale(-1,1)"/><polygon points="10 0 0 40 20 40" transform="scale(1,-1) rotate(135,96.4214,18.6396)"/><polygon points="10 0 0 40 20 40" transform="scale(1,-1) rotate(90,155,45)"/><polygon points="10 0 0 40 20 40" transform="scale(1,-1) rotate(45,296.421,108.64)"/><polygon points="10 0 0 40 20 40" transform="translate(90,200) scale(1,-1)"/><polygon points="10 0 0 40 20 40" transform="scale(-1,1) rotate(135,-45,77.2183)"/><polygon points="10 0 0 40 20 40" transform="scale(-1,1) rotate(90,-45,45)"/><polygon points="10 0 0 40 20 40" transform="scale(-1,1) rotate(45,-45,-32.7817)"/></svg>