<svg xmlns="http://www.w3.org/2000/svg" width="136" height="226" style="fill:none;stroke:#000"><title>Buchner flask</title><path fill="none" stroke="none" d="M 50,5 C 52.5,7.5 52.5,7.5 52.5,10 L 52.5,47.5 C 52.5,65 2.5,197.5 2.5,197.5 C 0,207.5 7.5,210 15,210 L 115,210 C 122.5,210 135,207.5 127.5,197.5 C 127.5,197.5 77.5,65 77.5,47.5 L 77.5,35 115,35 115,20 77.5,20 77.5,10 C 77.5,7.5 77.5,7.5 80,5"/><path stroke="none" d="M 25,140 C 13,165 3,198 3,198 C 0,208 8,210 15,210 L 115,210 C 127,208 133,209 129,200 C 125,191 108,142 107,140"/><path fill="none" d="M 50,5 C 52.5,7.5 52.5,7.5 52.5,10 L 52.5,47.5 C 52.5,65 2.5,197.5 2.5,197.5 C 0,207.5 7.5,210 15,210 L 115,210 C 122.5,210 135,207.5 127.5,197.5 C 127.5,197.5 77.5,65 77.5,47.5 L 77.5,35 115,35 M 115,20 77.5,20 77.5,10 C 77.5,7.5 77.5,7.5 80,5"/></svg>