<svg xmlns="http://www.w3.org/2000/svg" width="50" height="358" style="stroke:#000;fill:none"><title>Burette</title><polygon fill="none" points="0 0 10 10 10 290 17 297 17 350 24 350 24 297 32 291 32 10 42 0"/><polygon stroke="none" points="10 110 10 290 17 297 17 330 24 330 24 297 32 291 32 110"/><g><line x1="5" x2="45" y1="320" y2="320"/><line x1="39" x2="39" y1="312" y2="328"/><line x1="19" x2="32" y1="265" y2="265"/><line x1="19" x2="32" y1="235" y2="235"/><line x1="19" x2="32" y1="205" y2="205"/><line x1="19" x2="32" y1="175" y2="175"/><line x1="19" x2="32" y1="145" y2="145"/><line x1="19" x2="32" y1="115" y2="115"/><line x1="19" x2="32" y1="85" y2="85"/></g></svg>